<svg xmlns="http://www.w3.org/2000/svg" style="display: none;">
  <symbol id="tree" viewBox="0 0 24 24">
    <path fill="#17dbd8" d="M12,2L4,9H7V22H17V9H20L12,2M12,4.5L14.5,7H13V9H11V7H9.5L12,4.5M11,11H13V13H11V11M11,15H13V17H11V15M11,19H13V21H11V19Z" />
  </symbol>
  
  <symbol id="leaf" viewBox="0 0 24 24">
    <path fill="#01c69eae" d="M17,8C8,10 5.9,16.17 3.82,21.34L5.71,22L6.66,19.7C7.14,19.87 7.64,20 8,20C19,20 22,3 22,3C21,5 14,5.25 9,6.25C4,7.25 2,11.5 2,13.5C2,15.5 3.75,17.25 3.75,17.25C7,8 17,8 17,8Z" />
  </symbol>
  
  <symbol id="sun" viewBox="0 0 24 24">
    <path fill="#df0471" d="M12,7A5,5 0 0,1 17,12A5,5 0 0,1 12,17A5,5 0 0,1 7,12A5,5 0 0,1 12,7M12,9A3,3 0 0,0 9,12A3,3 0 0,0 12,15A3,3 0 0,0 15,12A3,3 0 0,0 12,9M12,2L14.39,5.42C13.65,5.15 12.84,5 12,5C11.16,5 10.35,5.15 9.61,5.42L12,2M3.34,7L7.5,6.65C6.9,7.16 6.36,7.78 5.94,8.5C5.5,9.24 5.25,10 5.11,10.79L3.34,7M3.36,17L5.12,13.23C5.26,14 5.53,14.78 5.95,15.5C6.37,16.24 6.91,16.86 7.5,17.37L3.36,17M20.65,7L18.88,10.79C18.74,10 18.47,9.23 18.05,8.5C17.63,7.78 17.1,7.15 16.5,6.64L20.65,7M20.64,17L16.5,17.36C17.09,16.85 17.62,16.22 18.04,15.5C18.46,14.77 18.73,14 18.87,13.21L20.64,17M12,22L9.59,18.56C10.33,18.83 11.14,19 12,19C12.82,19 13.63,18.83 14.37,18.56L12,22Z" />
  </symbol>
  
  <symbol id="butterfly" viewBox="0 0 24 24">
    <path fill="#cc0174" d="M13,21V12H21V21H13M3,15.5V13.5C3,13.5 5,12 6.5,10C8,8 9.5,7 9.5,7L11,9.5L8.5,11L11,13.5L9.5,16C9.5,16 8,15 6.5,13C5,11 3,9.5 3,9.5V7.5C3,6.7 3.7,6 4.5,6C5.3,6 6,6.7 6,7.5V9L8,11L10,9L12,11.5L10,14L12,16.5L9.5,18C9.5,18 9,16.5 8,15C7,13.5 6,12 6,12V13.5C6,14.3 5.3,15 4.5,15C3.7,15 3,14.3 3,13.5M13,10V3H21V10H13Z" />
  </symbol>
</svg>